<svg width="69" height="84" viewBox="0 0 69 84" fill="none" xmlns="http://www.w3.org/2000/svg">
<path d="M29.6586 0C28.8402 0 28.1769 0.665206 28.1769 1.48429C28.1769 3.94089 26.1865 5.93196 23.7293 5.93196C22.0905 5.93196 20.7626 7.25979 20.7626 8.89861C20.7626 10.5361 22.0904 11.8633 23.7293 11.8633H44.4873C46.126 11.8633 47.4539 10.5361 47.4539 8.89861C47.4539 7.25984 46.1261 5.93196 44.4873 5.93196C42.03 5.93196 40.0396 3.94089 40.0396 1.48429C40.0396 0.665222 39.3763 0 38.5579 0H29.6586ZM32.6253 2.96666H35.5913C36.4097 2.96666 37.073 3.62993 37.073 4.44899C37.073 5.26806 36.4097 5.93197 35.5913 5.93197H32.6253C31.8069 5.93197 31.1436 5.2687 31.1436 4.44899C31.1436 3.62993 31.8069 2.96666 32.6253 2.96666ZM5.93265 8.89865V77.1089H62.2819V8.89865H50.4193C50.4193 12.1736 47.7629 14.828 44.4866 14.828H23.7286C20.4523 14.828 17.796 12.1736 17.796 8.89865H5.93265ZM2.96666 9.17016C1.19537 9.79593 0.00844023 11.4677 0 13.3462V78.5925C0 81.0498 1.99239 83.0422 4.44965 83.0422H63.7646C66.2218 83.0422 68.2142 81.0498 68.2142 78.5925V13.3462C68.2058 11.4676 67.0189 9.79589 65.2476 9.17016V77.109C65.2476 78.7478 63.9204 80.075 62.2816 80.075H5.93232C4.29354 80.075 2.96633 78.7478 2.96633 77.109V9.17016H2.96666ZM54.3031 29.7974C56.3375 29.7864 57.7144 29.9474 57.8852 29.9687C58.5627 30.0521 59.0954 30.5868 59.1762 31.2655C59.2357 31.8105 60.6825 44.7029 53.393 51.9689C48.2996 57.0365 40.4929 57.8395 36.0442 57.8395C34.9271 57.8466 33.8113 57.791 32.7001 57.6734C26.7378 58.3437 18.726 57.0521 14.1713 52.4777C7.64648 45.9309 8.98798 34.3759 9.04872 33.886C9.13211 33.2085 9.66609 32.6745 10.3423 32.5931C10.8336 32.5336 22.3918 31.2381 28.9158 37.7848C30.5287 39.4475 31.7705 41.4315 32.5599 43.6094C33.4217 40.6272 35.0003 37.9011 37.1575 35.6689C42.1676 30.6756 49.8257 29.8197 54.3011 29.7972L54.3031 29.7974ZM54.8675 32.7783C50.9739 32.7479 43.6856 33.3401 39.2411 37.769C35.0048 41.9877 34.2382 48.7588 34.1909 52.7553L39.2216 47.7433L38.4988 44.0933C38.3657 43.3021 38.8841 42.5463 39.6722 42.3906C40.4589 42.2341 41.2282 42.7332 41.4061 43.5154L41.7461 45.2279L43.6662 43.3306L42.9441 39.6799C42.8225 39.1524 42.9971 38.601 43.3998 38.2409C43.8032 37.8802 44.3708 37.7683 44.8809 37.948C45.3903 38.1271 45.7633 38.5706 45.8512 39.1046L46.1913 40.8164L50.4398 36.5828C51.0197 36.0042 51.9597 36.0061 52.5383 36.5866C53.1169 37.1665 53.115 38.1065 52.5344 38.6838L48.2839 42.9181L49.9976 43.264C50.7449 43.4153 51.2536 44.1083 51.1767 44.8653C51.0998 45.6236 50.463 46.1989 49.7015 46.1983C49.4765 46.1983 49.5502 46.1989 45.7567 45.4329L43.842 47.3387L45.5563 47.6865C46.3023 47.8384 46.8131 48.5308 46.7361 49.2891C46.6592 50.0474 46.0205 50.6234 45.259 50.6228C45.034 50.6228 45.1057 50.6208 41.3129 49.8554L36.2886 54.8629C40.2961 54.8261 47.0691 54.0788 51.2924 49.8741C56.3878 44.7936 56.4674 36.0133 56.3102 32.8199C55.9107 32.7992 55.4239 32.783 54.8673 32.7779L54.8675 32.7783ZM13.2075 35.4307C12.7097 35.4287 12.2695 35.441 11.901 35.4559C11.7646 38.3941 11.8835 45.9804 16.271 50.3833C19.8401 53.966 25.5258 54.7321 29.1078 54.8246L24.9918 50.6917L21.8222 51.3174C21.296 51.4377 20.7465 51.2625 20.3864 50.8597C20.027 50.4576 19.9145 49.892 20.0936 49.3826C20.2727 48.8738 20.7129 48.5014 21.2449 48.4116L22.4739 48.1672L21.0549 46.7411L17.8872 47.3695C17.3674 47.4723 16.8315 47.29 16.4824 46.8911C16.1339 46.4929 16.0247 45.9395 16.1954 45.4379C16.366 44.9355 16.7901 44.5632 17.3105 44.4604L18.5375 44.2173L14.9787 40.6463C14.5792 40.2765 14.415 39.716 14.5494 39.1885C14.6846 38.661 15.0989 38.2518 15.6271 38.1193C16.1546 37.9874 16.7125 38.1555 17.0803 38.5576L20.6371 42.1164L20.8828 40.89C21.047 40.0871 21.8312 39.5706 22.6334 39.7335C23.437 39.8977 23.9561 40.6819 23.7919 41.4841L23.1532 44.6479L24.5741 46.0739L24.8204 44.847C24.9814 44.0434 25.7636 43.5243 26.5665 43.6866C27.3701 43.8475 27.8911 44.6297 27.7289 45.4334L27.0901 48.5991L31.2082 52.732C31.1286 49.1538 30.3846 43.4623 26.8154 39.8784C22.9774 36.0255 16.6958 35.4371 13.208 35.4307L13.2075 35.4307Z" fill="#EBF6ED"/>
</svg>
