<svg width="28" height="34" viewBox="0 0 28 34" fill="none" xmlns="http://www.w3.org/2000/svg">
<path d="M11.9397 0C11.6102 0 11.3432 0.267793 11.3432 0.597532C11.3432 1.58649 10.5419 2.38803 9.55272 2.38803C8.89299 2.38803 8.35843 2.92258 8.35843 3.58232C8.35843 4.24153 8.89297 4.77582 9.55272 4.77582H17.9093C18.569 4.77582 19.1036 4.24153 19.1036 3.58232C19.1036 2.9226 18.569 2.38803 17.9093 2.38803C16.9201 2.38803 16.1188 1.58649 16.1188 0.597532C16.1188 0.267799 15.8518 0 15.5223 0H11.9397ZM13.134 1.19429H14.328C14.6575 1.19429 14.9245 1.4613 14.9245 1.79104C14.9245 2.12077 14.6575 2.38804 14.328 2.38804H13.134C12.8045 2.38804 12.5375 2.12103 12.5375 1.79104C12.5375 1.4613 12.8045 1.19429 13.134 1.19429ZM2.38831 3.58234V31.0418H25.0729V3.58234H20.2973C20.2973 4.90075 19.228 5.96932 17.909 5.96932H9.55246C8.23351 5.96932 7.16414 4.90075 7.16414 3.58234H2.38831ZM1.19429 3.69164C0.48122 3.94356 0.00339779 4.61657 0 5.37281V31.6391C0 32.6283 0.802078 33.4304 1.7913 33.4304H25.6698C26.659 33.4304 27.4611 32.6283 27.4611 31.6391V5.37281C27.4577 4.61651 26.9799 3.94354 26.2668 3.69164V31.0419C26.2668 31.7016 25.7325 32.2359 25.0728 32.2359H2.38818C1.72846 32.2359 1.19416 31.7016 1.19416 31.0419V3.69164H1.19429ZM21.8609 11.9956C22.6799 11.9912 23.2342 12.056 23.3029 12.0645C23.5757 12.0981 23.7901 12.3133 23.8226 12.5866C23.8466 12.806 24.429 17.9961 21.4945 20.9212C19.444 22.9613 16.3013 23.2845 14.5104 23.2845C14.0606 23.2874 13.6115 23.265 13.1641 23.2176C10.7639 23.4875 7.53855 22.9675 5.70494 21.126C3.07825 18.4904 3.6183 13.8387 3.64275 13.6415C3.67632 13.3688 3.89129 13.1538 4.16351 13.121C4.3613 13.0971 9.01429 12.5755 11.6406 15.2111C12.29 15.8804 12.7899 16.6791 13.1077 17.5559C13.4546 16.3553 14.0901 15.2579 14.9586 14.3593C16.9754 12.3491 20.0584 12.0045 21.8601 11.9955L21.8609 11.9956ZM22.0881 13.1956C20.5206 13.1834 17.5866 13.4217 15.7973 15.2047C14.0919 16.9031 13.7833 19.6289 13.7643 21.2378L15.7895 19.2201L15.4985 17.7507C15.4449 17.4322 15.6536 17.1279 15.9709 17.0652C16.2876 17.0022 16.5973 17.2031 16.6689 17.518L16.8058 18.2075L17.5787 17.4436L17.288 15.974C17.2391 15.7616 17.3094 15.5396 17.4715 15.3947C17.6339 15.2495 17.8624 15.2044 18.0677 15.2768C18.2728 15.3489 18.423 15.5274 18.4584 15.7424L18.5953 16.4315L20.3056 14.7272C20.5391 14.4942 20.9175 14.495 21.1504 14.7287C21.3833 14.9622 21.3825 15.3406 21.1488 15.573L19.4377 17.2776L20.1276 17.4168C20.4284 17.4777 20.6332 17.7567 20.6023 18.0615C20.5713 18.3667 20.3149 18.5984 20.0084 18.5981C19.9178 18.5981 19.9475 18.5984 18.4203 18.29L17.6495 19.0572L18.3397 19.1972C18.64 19.2584 18.8456 19.5371 18.8146 19.8424C18.7836 20.1476 18.5265 20.3795 18.2199 20.3793C18.1294 20.3793 18.1583 20.3785 16.6314 20.0703L14.6088 22.0862C16.222 22.0714 18.9487 21.7705 20.6488 20.0779C22.7001 18.0326 22.7321 14.4979 22.6689 13.2123C22.508 13.204 22.312 13.1975 22.088 13.1954L22.0881 13.1956ZM5.31696 14.2634C5.11657 14.2626 4.93934 14.2675 4.791 14.2735C4.73609 15.4563 4.78397 18.5104 6.55025 20.2829C7.98705 21.7251 10.276 22.0335 11.718 22.0708L10.061 20.407L8.785 20.6589C8.57316 20.7073 8.35195 20.6368 8.20699 20.4747C8.06229 20.3128 8.01701 20.0851 8.0891 19.88C8.16119 19.6752 8.33842 19.5253 8.5526 19.4891L9.04733 19.3907L8.47609 18.8166L7.20085 19.0696C6.99161 19.111 6.77587 19.0376 6.63533 18.877C6.49506 18.7167 6.45108 18.4939 6.51978 18.292C6.58848 18.0898 6.75921 17.9398 6.96871 17.8985L7.46266 17.8006L6.02999 16.363C5.86916 16.2142 5.80306 15.9885 5.85719 15.7762C5.91158 15.5638 6.07839 15.3991 6.29102 15.3457C6.50338 15.2926 6.72797 15.3603 6.87605 15.5222L8.30792 16.9548L8.40681 16.4611C8.47292 16.1379 8.7886 15.93 9.11156 15.9956C9.43505 16.0617 9.64402 16.3773 9.57792 16.7003L9.32079 17.9739L9.89281 18.548L9.99197 18.0541C10.0568 17.7306 10.3717 17.5216 10.6949 17.5869C11.0184 17.6517 11.2282 17.9666 11.1628 18.2902L10.9057 19.5646L12.5635 21.2284C12.5315 19.7879 12.2319 17.4967 10.7951 16.0539C9.25005 14.5028 6.72123 14.266 5.31714 14.2634L5.31696 14.2634Z" fill="#41B877"/>
</svg>
